<svg xmlns="http://www.w3.org/2000/svg" width="379.33" height="65.84" viewBox="0 0 379.33 65.84">
  <defs>
    <style>
      .a {
        fill: #1e1e1e;
      }
    </style>
  </defs>
  <g>
    <path class="a" d="M9.57,51.07V36.53H24.63V51.07H34.2V14.69H24.63V28.17H9.57V14.69H0V51.07Z"/>
    <path class="a" d="M56,52c12.05,0,19.28-8.74,19.28-19.13S68.09,13.78,56,13.78,36.83,22.52,36.83,32.84,44.06,52,56,52Zm0-8.51c-6,0-9.27-4.9-9.27-10.62S50.09,22.3,56,22.3s9.34,4.9,9.34,10.55S62,43.46,56,43.46Z"/>
    <path class="a" d="M78.11,14.69V27.87c0,7.53,3.77,12,13.94,12a23,23,0,0,0,10.62-2.26V51.07h9.64V14.69h-9.64V29.9a16.19,16.19,0,0,1-7.31,1.43c-5,0-7.68-1.66-7.68-6.78V14.69Z"/>
    <path class="a" d="M147.48,5a5.12,5.12,0,0,0-10.24,0,5.12,5.12,0,0,0,10.24,0Zm-16,0a5.08,5.08,0,1,0-5,5.12A5.06,5.06,0,0,0,131.51,5ZM134.9,52c5.65,0,11.37-1.73,15-5l-4.22-6.18C143.34,43,139,44.37,136,44.37c-6.18,0-9.87-3.84-10.47-8.44h27V33.82c0-11.9-7.38-20-18.23-20-11.07,0-18.83,8.51-18.83,19.06C115.47,44.52,123.83,52,134.9,52Zm8.36-22.52H125.34c.45-3.62,3-8.06,9-8.06C140.63,21.39,143,26,143.27,29.45Z"/>
    <path class="a" d="M178.67,51.07c7.31,0,11.22-4.37,11.22-9.87A9,9,0,0,0,183,32.31,8.38,8.38,0,0,0,189.14,24c0-4.9-3.77-9.34-11.15-9.34h-23V51.07Zm-2.34-7.83H164.51V36.46h11.83a3.43,3.43,0,0,1,3.77,3.39C180.1,42,178.67,43.24,176.33,43.24ZM176,28.62H164.51v-6.1H176c2.11,0,3.39,1.28,3.39,3.09A3.08,3.08,0,0,1,176,28.62Z"/>
    <path class="a" d="M228.61,51.07,213.77,31.18l14.39-16.5H216.41l-13.78,16.2V14.69h-9.57V51.07h9.57V41.73L207,37.06l9.64,14Z"/>
    <path class="a" d="M261.75,51.07V27.57c0-10.47-7.61-13.78-15.89-13.78A23.87,23.87,0,0,0,230,19.51l3.62,6.4a15.31,15.31,0,0,1,10.62-4.29c4.82,0,8,2.41,8,6.1v4.9c-2.41-2.86-6.7-4.44-11.52-4.44-5.8,0-12.65,3.24-12.65,11.75C228,48.06,234.86,52,240.66,52c4.75,0,9-1.73,11.52-4.67v3.77ZM244.5,45.5c-3.77,0-6.85-2-6.85-5.35,0-3.54,3.09-5.5,6.85-5.5,3.09,0,6.1,1.05,7.68,3.16v4.52C250.6,44.44,247.59,45.5,244.5,45.5Z"/>
    <path class="a" d="M271.62,51.9a6.1,6.1,0,1,0-6.1-6.1A6.17,6.17,0,0,0,271.62,51.9Z"/>
    <path class="a" d="M298.06,52c12.05,0,19.28-8.74,19.28-19.13s-7.23-19.06-19.28-19.06-19.21,8.74-19.21,19.06S286.08,52,298.06,52Zm0-8.51c-6,0-9.27-4.9-9.27-10.62s3.31-10.55,9.27-10.55,9.34,4.9,9.34,10.55S304,43.46,298.06,43.46Z"/>
    <path class="a" d="M330.22,51.07V27c1.58-2.34,5.8-4.14,9-4.14a12.71,12.71,0,0,1,2.64.23V13.78a15.64,15.64,0,0,0-11.6,5.88v-5h-9.57V51.07Z"/>
    <path class="a" d="M359.67,65.84c9,0,19.66-3.39,19.66-17.25V14.69h-9.64v4.67a14,14,0,0,0-11.22-5.57c-9.19,0-16,6.63-16,18.53,0,12.13,6.93,18.53,16,18.53a14.17,14.17,0,0,0,11.22-5.72v3.69c0,7.16-5.42,9.19-10,9.19s-8.44-1.28-11.37-4.52L344,60.41C348.6,64.4,353.42,65.84,359.67,65.84Zm1.81-23.5c-5.42,0-9.19-3.77-9.19-10s3.77-10,9.19-10a10.37,10.37,0,0,1,8.21,4.14V38.19A10.59,10.59,0,0,1,361.48,42.33Z"/>
  </g>
</svg>
